<svg preserveAspectRatio="none" width="100%" height="100%" overflow="visible" style="display: block;" viewBox="0 0 32 32" fill="none" xmlns="http://www.w3.org/2000/svg">
<g id="briefcase">
<path id="Vector" d="M21.3338 26.6656V5.33227C21.3338 4.62502 21.0528 3.94675 20.5526 3.44665C20.0525 2.94655 19.3742 2.6656 18.6669 2.6656H13.3331C12.6258 2.6656 11.9475 2.94655 11.4474 3.44665C10.9472 3.94675 10.6662 4.62502 10.6662 5.33227V26.6656M5.33248 7.99893H26.6675C28.1404 7.99893 29.3344 9.19284 29.3344 10.6656V23.9989C29.3344 25.4717 28.1404 26.6656 26.6675 26.6656H5.33248C3.8596 26.6656 2.6656 25.4717 2.6656 23.9989V10.6656C2.6656 9.19284 3.8596 7.99893 5.33248 7.99893Z" stroke="var(--stroke-0, #C8963E)" stroke-width="2" stroke-linecap="round"/>
</g>
</svg>
