<svg preserveAspectRatio="none" width="100%" height="100%" overflow="visible" style="display: block;" viewBox="0 0 24 24" fill="none" xmlns="http://www.w3.org/2000/svg">
<g id="cloud">
<path id="Vector" d="M9.00016 19.0008H17.5006C18.6941 19.0008 19.8388 18.5266 20.6827 17.6826C21.5267 16.8386 22.0008 15.6939 22.0008 14.5003C22.0008 13.3067 21.5267 12.162 20.6827 11.3179C19.8388 10.4739 18.6941 9.99977 17.5006 9.99977H15.7105C15.3396 8.75561 14.63 7.6391 13.6611 6.77501C12.6922 5.91092 11.5021 5.33329 10.2239 5.10668C8.9456 4.88006 7.62949 5.01338 6.42263 5.49174C5.21576 5.9701 4.16568 6.77466 3.38972 7.8155C2.61377 8.85635 2.1425 10.0925 2.0286 11.3858C1.9147 12.679 2.16264 13.9785 2.74472 15.139C3.32679 16.2994 4.22008 17.2752 5.32475 17.9572C6.42942 18.6391 7.70195 19.0005 9.00016 19.0008Z" stroke="var(--stroke-0, #1A3C2E)" stroke-width="2" stroke-linecap="round"/>
</g>
</svg>
