<svg preserveAspectRatio="none" width="100%" height="100%" overflow="visible" style="display: block;" viewBox="0 0 32 32" fill="none" xmlns="http://www.w3.org/2000/svg">
<g id="cloud">
<path id="Vector" d="M12.0002 25.3344H23.3341C24.9255 25.3344 26.4517 24.7022 27.577 23.5768C28.7022 22.4515 29.3344 20.9252 29.3344 19.3337C29.3344 17.7422 28.7022 16.2159 27.577 15.0906C26.4517 13.9652 24.9255 13.333 23.3341 13.333H20.9473C20.4528 11.6741 19.5067 10.1855 18.2148 9.03335C16.923 7.88123 15.3362 7.11106 13.6318 6.8089C11.9275 6.50675 10.1727 6.68451 8.5635 7.32232C6.95435 7.96014 5.55424 9.03288 4.51963 10.4207C3.48502 11.8085 2.85667 13.4566 2.7048 15.181C2.55293 16.9054 2.88352 18.638 3.65962 20.1853C4.43572 21.7326 5.62677 23.0336 7.09966 23.9429C8.57256 24.8522 10.2693 25.334 12.0002 25.3344Z" stroke="var(--stroke-0, #C8963E)" stroke-width="2" stroke-linecap="round"/>
</g>
</svg>
