<svg preserveAspectRatio="none" width="100%" height="100%" overflow="visible" style="display: block;" viewBox="0 0 32 32" fill="none" xmlns="http://www.w3.org/2000/svg">
<g id="cuboid">
<path id="Vector" d="M13.3331 29.3336V18.6664M13.3331 18.6664L3.11355 11.8523M13.3331 18.6664L28.9543 9.29353M29.3344 18.6668C29.3344 19.1273 29.2152 19.58 28.9882 19.9807C28.7613 20.3815 28.4345 20.7166 28.0396 20.9536L14.7052 28.954C14.2724 29.2138 13.7748 29.3455 13.2701 29.3337C12.7655 29.3219 12.2745 29.1671 11.8543 28.8873L3.8537 23.5537C3.48812 23.3101 3.18838 22.98 2.98111 22.5927C2.77384 22.2054 2.66546 21.7729 2.6656 21.3336V13.3332C2.6656 12.8727 2.78485 12.42 3.01175 12.0193C3.23865 11.6185 3.56547 11.2834 3.96037 11.0464L17.2948 3.04603C17.7276 2.7862 18.2252 2.65453 18.7299 2.66633C19.2345 2.67813 19.7255 2.83292 20.1457 3.1127L28.1463 8.4463C28.5119 8.68988 28.8116 9.01999 29.0189 9.4073C29.2262 9.79461 29.3345 10.2271 29.3344 10.6664V18.6668Z" stroke="var(--stroke-0, #C8963E)" stroke-width="2" stroke-linecap="round"/>
</g>
</svg>
