<svg preserveAspectRatio="none" width="100%" height="100%" overflow="visible" style="display: block;" viewBox="0 0 32 32" fill="none" xmlns="http://www.w3.org/2000/svg">
<g id="git-branch">
<path id="Vector" d="M20 8C16.8174 8 13.7652 9.26428 11.5147 11.5147C9.26428 13.7652 8 16.8174 8 20M20 8C20 10.2091 21.7909 12 24 12C26.2091 12 28 10.2091 28 8C28 5.79086 26.2091 4 24 4C21.7909 4 20 5.79086 20 8ZM8 20V4M8 20C5.79086 20 4 21.7909 4 24C4 26.2091 5.79086 28 8 28C10.2091 28 12 26.2091 12 24C12 21.7909 10.2091 20 8 20Z" stroke="var(--stroke-0, #C8963E)" stroke-width="2" stroke-linecap="round"/>
</g>
</svg>
