<svg preserveAspectRatio="none" width="100%" height="100%" overflow="visible" style="display: block;" viewBox="0 0 22 22" fill="none" xmlns="http://www.w3.org/2000/svg">
<g id="hammer">
<path id="Vector" d="M13.7502 10.9995L5.15761 19.591C4.97702 19.7716 4.76263 19.9149 4.52666 20.0126C4.2907 20.1104 4.03778 20.1608 3.78236 20.1608C3.2665 20.1609 2.77174 19.9561 2.40692 19.5914C2.04209 19.2268 1.83709 18.7321 1.837 18.2164C1.83691 17.7006 2.04175 17.2059 2.40646 16.8411L11 8.24969M16.5004 13.7494L20.1674 10.0829M19.709 10.5412L17.9544 8.78683C17.6105 8.44311 17.4173 7.97689 17.4172 7.49073V7.17542C17.4171 6.68925 17.2238 6.22304 16.88 5.87932L15.3609 4.36049C14.3297 3.32959 12.9312 2.75031 11.473 2.75H8.24973L9.38924 3.88935C10.4205 4.92065 10.9999 6.31927 11 7.77763V9.1663L12.8334 10.9995H13.9079C14.3941 10.9996 14.8604 11.1928 15.2041 11.5367L16.9588 13.2911" stroke="var(--stroke-0, #1A3C2E)" stroke-width="2" stroke-linecap="round"/>
</g>
</svg>
