<svg preserveAspectRatio="none" width="100%" height="100%" overflow="visible" style="display: block;" viewBox="0 0 22 22" fill="none" xmlns="http://www.w3.org/2000/svg">
<g id="handshake">
<path id="Vector" d="M10.0833 15.5843L11.9167 17.4176C12.0973 17.5982 12.3117 17.7414 12.5476 17.8392C12.7836 17.9369 13.0365 17.9872 13.2919 17.9872C13.5472 17.9872 13.8001 17.9369 14.0361 17.8392C14.272 17.7414 14.4864 17.5982 14.667 17.4176C14.8475 17.2371 14.9908 17.0227 15.0885 16.7868C15.1862 16.5509 15.2366 16.298 15.2366 16.0426C15.2366 15.7873 15.1862 15.5344 15.0885 15.2985C14.9908 15.0626 14.8475 14.8482 14.667 14.6676M12.8337 12.8339L15.1255 15.1255C15.4902 15.4902 15.9849 15.6951 16.5006 15.6951C17.0164 15.6951 17.5111 15.4902 17.8758 15.1255C18.2405 14.7609 18.4453 14.2663 18.4453 13.7505C18.4453 13.2348 18.2405 12.7402 17.8758 12.3755L14.3188 8.81883C13.8031 8.30384 13.1041 8.01458 12.3753 8.01458C11.6465 8.01458 10.9475 8.30384 10.4318 8.81883L9.6251 9.6255C9.2604 9.99018 8.76575 10.195 8.24999 10.195C7.73422 10.195 7.23958 9.99018 6.87488 9.6255C6.51018 9.26083 6.30529 8.76622 6.30529 8.25049C6.30529 7.73476 6.51018 7.24016 6.87488 6.87549L9.45092 4.29964C10.2872 3.4656 11.3778 2.9343 12.5501 2.78985C13.7224 2.64541 14.9093 2.89606 15.9231 3.50213L16.354 3.7588C16.7443 3.99437 17.2084 4.07608 17.6557 3.98797L19.2509 3.66713M19.2507 2.7509L20.1674 12.8343H18.3339M2.74934 2.7509L1.8326 12.8343L7.79141 18.7927C8.15611 19.1573 8.65075 19.3622 9.16652 19.3622C9.68229 19.3622 10.1769 19.1573 10.5416 18.7927C10.9063 18.428 11.1112 17.9334 11.1112 17.4176C11.1112 16.9019 10.9063 16.4073 10.5416 16.0426M2.74934 3.66757H10.0833" stroke="var(--stroke-0, #1A3C2E)" stroke-width="2" stroke-linecap="round"/>
</g>
</svg>
