<svg preserveAspectRatio="none" width="100%" height="100%" overflow="visible" style="display: block;" viewBox="0 0 24 24" fill="none" xmlns="http://www.w3.org/2000/svg">
<g id="linkedin">
<g id="Vector">
<path d="M20.2433 9.75689C19.118 8.63162 17.5917 7.99945 16.0003 7.99945C14.4089 7.99945 12.8826 8.63162 11.7573 9.75689C10.632 10.8822 9.99984 12.4083 9.99984 13.9997V21H14.0002V13.9997C14.0002 13.4692 14.2109 12.9605 14.586 12.5854C14.9611 12.2103 15.4698 11.9996 16.0003 11.9996C16.5308 11.9996 17.0395 12.2103 17.4146 12.5854C17.7897 12.9605 18.0005 13.4692 18.0005 13.9997V21H22.0008V13.9997C22.0008 12.4083 21.3686 10.8822 20.2433 9.75689Z" stroke="var(--stroke-0, #C8963E)" stroke-width="2" stroke-linecap="round"/>
<path d="M5.99952 8.99949H1.9992V21H5.99952V8.99949Z" stroke="var(--stroke-0, #C8963E)" stroke-width="2" stroke-linecap="round"/>
<path d="M3.99936 5.99937C5.10402 5.99937 5.99952 5.1039 5.99952 3.99928C5.99952 2.89467 5.10402 1.9992 3.99936 1.9992C2.8947 1.9992 1.9992 2.89467 1.9992 3.99928C1.9992 5.1039 2.8947 5.99937 3.99936 5.99937Z" stroke="var(--stroke-0, #C8963E)" stroke-width="2" stroke-linecap="round"/>
</g>
</g>
</svg>
