<svg preserveAspectRatio="none" width="100%" height="100%" overflow="visible" style="display: block;" viewBox="0 0 32 32" fill="none" xmlns="http://www.w3.org/2000/svg">
<g id="server">
<path id="Vector" d="M7.99936 7.99936H8.0127M7.99936 24.0006H8.0127M5.33248 2.6656H26.6675C28.1404 2.6656 29.3344 3.8596 29.3344 5.33248V10.6662C29.3344 12.1391 28.1404 13.3331 26.6675 13.3331H5.33248C3.8596 13.3331 2.6656 12.1391 2.6656 10.6662V5.33248C2.6656 3.8596 3.8596 2.6656 5.33248 2.6656ZM5.33248 18.6669H26.6675C28.1404 18.6669 29.3344 19.8609 29.3344 21.3338V26.6675C29.3344 28.1404 28.1404 29.3344 26.6675 29.3344H5.33248C3.8596 29.3344 2.6656 28.1404 2.6656 26.6675V21.3338C2.6656 19.8609 3.8596 18.6669 5.33248 18.6669Z" stroke="var(--stroke-0, #C8963E)" stroke-width="2" stroke-linecap="round"/>
</g>
</svg>
