<svg preserveAspectRatio="none" width="100%" height="100%" overflow="visible" style="display: block;" viewBox="0 0 32 32" fill="none" xmlns="http://www.w3.org/2000/svg">
<g id="settings">
<path id="Vector" d="M12.8945 5.51583C12.968 4.74299 13.327 4.02529 13.9014 3.50297C14.4758 2.98064 15.2243 2.6912 16.0007 2.6912C16.7771 2.6912 17.5256 2.98064 18.1 3.50297C18.6744 4.02529 19.0333 4.74299 19.1068 5.51583C19.151 6.01508 19.3148 6.49634 19.5844 6.91888C19.8539 7.34142 20.2214 7.69281 20.6555 7.94328C21.0897 8.19376 21.5778 8.33597 22.0786 8.35786C22.5793 8.37975 23.078 8.28068 23.5324 8.06904C24.2379 7.74876 25.0373 7.70242 25.7751 7.93903C26.513 8.17564 27.1363 8.67828 27.5239 9.34912C27.9115 10.02 28.0356 10.811 27.8721 11.5683C27.7086 12.3256 27.2691 12.995 26.6392 13.4461C26.229 13.7339 25.8942 14.1162 25.663 14.5608C25.4319 15.0053 25.3112 15.499 25.3112 16C25.3112 16.501 25.4319 16.9947 25.663 17.4392C25.8942 17.8838 26.229 18.2661 26.6392 18.5539C27.2691 19.005 27.7086 19.6744 27.8721 20.4317C28.0356 21.189 27.9115 21.98 27.5239 22.6509C27.1363 23.3217 26.513 23.8244 25.7751 24.061C25.0373 24.2976 24.2379 24.2512 23.5324 23.931C23.078 23.7193 22.5793 23.6203 22.0786 23.6421C21.5778 23.664 21.0897 23.8062 20.6555 24.0567C20.2214 24.3072 19.8539 24.6586 19.5844 25.0811C19.3148 25.5037 19.151 25.9849 19.1068 26.4842C19.0333 27.257 18.6744 27.9747 18.1 28.497C17.5256 29.0194 16.7771 29.3088 16.0007 29.3088C15.2243 29.3088 14.4758 29.0194 13.9014 28.497C13.327 27.9747 12.968 27.257 12.8945 26.4842C12.8504 25.9847 12.6866 25.5033 12.417 25.0806C12.1473 24.6579 11.7798 24.3064 11.3454 24.0559C10.9111 23.8054 10.4227 23.6633 9.92181 23.6415C9.42086 23.6198 8.92205 23.719 8.46763 23.931C7.76211 24.2512 6.96266 24.2976 6.22485 24.061C5.48705 23.8244 4.86368 23.3217 4.47608 22.6509C4.08847 21.98 3.96436 21.189 4.1279 20.4317C4.29143 19.6744 4.73091 19.005 5.36081 18.5539C5.77099 18.2661 6.10582 17.8838 6.33698 17.4392C6.56813 16.9947 6.68881 16.501 6.68881 16C6.68881 15.499 6.56813 15.0053 6.33698 14.5608C6.10582 14.1162 5.77099 13.7339 5.36081 13.4461C4.7318 12.9947 4.29309 12.3256 4.12995 11.5689C3.96681 10.8121 4.09089 10.0217 4.47808 9.35127C4.86527 8.68086 5.4879 8.17834 6.22497 7.94137C6.96205 7.7044 7.76091 7.7499 8.4663 8.06904C8.92066 8.28068 9.41933 8.37975 9.9201 8.35786C10.4209 8.33597 10.909 8.19376 11.3432 7.94328C11.7773 7.69281 12.1447 7.34142 12.4143 6.91888C12.6839 6.49634 12.8477 6.01508 12.8918 5.51583M19.9998 16.0005C19.9998 18.2095 18.2088 20.0003 15.9996 20.0003C13.7903 20.0003 11.9994 18.2095 11.9994 16.0005C11.9994 13.7914 13.7903 12.0007 15.9996 12.0007C18.2088 12.0007 19.9998 13.7914 19.9998 16.0005Z" stroke="var(--stroke-0, #C8963E)" stroke-width="2" stroke-linecap="round"/>
</g>
</svg>
