<svg preserveAspectRatio="none" width="100%" height="100%" overflow="visible" style="display: block;" viewBox="0 0 22 22" fill="none" xmlns="http://www.w3.org/2000/svg">
<g id="trees">
<path id="Vector" d="M6.4161 14.6667V20.1667M11.9161 17.4167V20.1667M10.9991 17.4167H18.6074C18.7868 17.4141 18.9616 17.359 19.1099 17.2581C19.2583 17.1572 19.3738 17.015 19.4422 16.8491C19.5105 16.6832 19.5286 16.5009 19.4943 16.3248C19.46 16.1486 19.3747 15.9865 19.2491 15.8583L16.4991 12.8333H16.7741C16.9535 12.8308 17.1282 12.7757 17.2766 12.6748C17.425 12.5739 17.5405 12.4317 17.6088 12.2658C17.6771 12.0999 17.6953 11.9175 17.6609 11.7414C17.6266 11.5653 17.5414 11.4031 17.4157 11.275L14.6657 8.25H14.8491C15.0363 8.26689 15.2242 8.22581 15.3873 8.13232C15.5504 8.03883 15.6808 7.89745 15.7608 7.72735C15.8409 7.55726 15.8667 7.36666 15.8348 7.1814C15.8029 6.99614 15.7148 6.82517 15.5824 6.69167L11.9157 2.75L10.6324 4.125M9.16574 9.16667V9.35C9.76691 9.58119 10.2679 10.0161 10.5812 10.5788C10.8946 11.1415 11.0005 11.7964 10.8805 12.4292C10.7605 13.062 10.4222 13.6326 9.92452 14.0415C9.42687 14.4504 8.80148 14.6716 8.15741 14.6667H4.58241C3.94603 14.6508 3.33485 14.4147 2.85312 13.9986C2.37139 13.5824 2.04895 13.0121 1.94079 12.3848C1.83263 11.7574 1.94546 11.112 2.26002 10.5586C2.57459 10.0052 3.0714 9.57802 3.66574 9.35V9.16667C3.66574 8.43732 3.95547 7.73785 4.4712 7.22212C4.98692 6.7064 5.68639 6.41667 6.41574 6.41667C7.14508 6.41667 7.84456 6.7064 8.36028 7.22212C8.87601 7.73785 9.16574 8.43732 9.16574 9.16667Z" stroke="var(--stroke-0, #1A3C2E)" stroke-width="2" stroke-linecap="round"/>
</g>
</svg>
