<svg preserveAspectRatio="none" overflow="visible" style="display: block;" width="22" height="22" viewBox="0 0 22 22" fill="none" xmlns="http://www.w3.org/2000/svg">
<g id="eye">
<path id="Vector" d="M1.8899 10.6819C1.8135 10.8877 1.8135 11.1141 1.8899 11.3199C2.63396 13.124 3.89695 14.6666 5.51877 15.7521C7.14059 16.8375 9.04819 17.417 10.9997 17.417C12.9513 17.417 14.8589 16.8375 16.4807 15.7521C18.1025 14.6666 19.3655 13.124 20.1096 11.3199C20.186 11.1141 20.186 10.8877 20.1096 10.6819C19.3655 8.87777 18.1025 7.33519 16.4807 6.24973C14.8589 5.16426 12.9513 4.5848 10.9997 4.5848C9.04819 4.5848 7.14059 5.16426 5.51877 6.24973C3.89695 7.33519 2.63396 8.87777 1.8899 10.6819Z" stroke="#C08414" stroke-width="2" stroke-linecap="round"/>
</g>
</svg>
